<?xml version="1.0" standalone="no"?>
<!DOCTYPE svg PUBLIC "-//W3C//DTD SVG 20010904//EN"
 "http://www.w3.org/TR/2001/REC-SVG-20010904/DTD/svg10.dtd">
<svg version="1.0" xmlns="http://www.w3.org/2000/svg"
 width="237.000000pt" height="126.000000pt" viewBox="0 0 237.000000 126.000000"
 preserveAspectRatio="xMidYMid meet">

<g transform="translate(0.000000,126.000000) scale(0.100000,-0.100000)"
fill="#000000" stroke="none">
<path d="M413 1108 c-22 -11 -22 -11 17 -56 22 -25 40 -48 40 -53 0 -4 -27 1
-60 13 -48 16 -64 17 -75 8 -37 -31 -123 -257 -175 -460 -44 -170 -13 -301 93
-396 66 -60 124 -84 212 -91 82 -6 174 20 240 68 57 42 109 125 130 205 9 38
19 76 22 84 3 9 21 -20 44 -69 58 -124 140 -242 186 -268 38 -21 44 -22 434
-20 394 2 395 3 427 25 80 58 179 267 243 516 51 198 -20 381 -183 471 -48 27
-61 30 -148 30 -83 0 -101 -3 -145 -27 -108 -56 -167 -144 -206 -302 l-22 -90
-16 35 c-104 235 -171 343 -231 374 -24 13 -86 15 -387 15 -235 0 -353 -4
-343 -10 9 -6 10 -10 3 -10 -6 0 -15 5 -18 10 -8 13 -54 12 -82 -2z"/>
</g>
</svg>
